name ./resultDataOpenSim/trcMotMarkerGrf/sub06/grf-04-03.mot
datacolumns 19
datarows 20
range 1.52800000 1.60400000
endheader

                time	     ground_force_vx	     ground_force_vy	     ground_force_vz	     ground_force_px	     ground_force_py	     ground_force_pz	   l_ground_force_vx	   l_ground_force_vy	   l_ground_force_vz	   l_ground_force_px	   l_ground_force_py	   l_ground_force_pz	     ground_torque_x	     ground_torque_y	     ground_torque_z	   l_ground_torque_x	   l_ground_torque_y	   l_ground_torque_z	
          1.52800000	         55.13055266	        466.45306303	        -29.65168022	          0.89427180	          0.00000000	          0.13450964	          0.00000000	          0.00000000	          0.00000000	          0.00000000	          0.00000000	          0.00000000	          0.00000000	          1.67246008	          0.00000000	          0.00000000	          0.00000000	          0.00000000	
          1.53200000	         58.52978232	        482.89631230	        -31.68559002	          0.89456361	          0.00000000	          0.13446831	          0.00000000	          0.00000000	          0.00000000	          0.00000000	          0.00000000	          0.00000000	          0.00000000	          1.74826718	          0.00000000	          0.00000000	          0.00000000	          0.00000000	
          1.53600000	         61.86053151	        499.54998015	        -33.16988028	          0.89488155	          0.00000000	          0.13439966	          0.00000000	          0.00000000	          0.00000000	          0.00000000	          0.00000000	          0.00000000	          0.00000000	          1.83562302	          0.00000000	          0.00000000	          0.00000000	          0.00000000	
          1.54000000	         65.21188179	        516.27491889	        -34.11131847	          0.89520178	          0.00000000	          0.13430995	          0.00000000	          0.00000000	          0.00000000	          0.00000000	          0.00000000	          0.00000000	          0.00000000	          1.93475556	          0.00000000	          0.00000000	          0.00000000	          0.00000000	
          1.54400000	         68.72549414	        532.91778150	        -34.60865404	          0.89550063	          0.00000000	          0.13420830	          0.00000000	          0.00000000	          0.00000000	          0.00000000	          0.00000000	          0.00000000	          0.00000000	          2.04535202	          0.00000000	          0.00000000	          0.00000000	          0.00000000	
          1.54800000	         72.56837553	        549.34610792	        -34.82729127	          0.89574843	          0.00000000	          0.13410541	          0.00000000	          0.00000000	          0.00000000	          0.00000000	          0.00000000	          0.00000000	          0.00000000	          2.16646222	          0.00000000	          0.00000000	          0.00000000	          0.00000000	
          1.55200000	         76.89277140	        565.47272928	        -34.96214138	          0.89593330	          0.00000000	          0.13401014	          0.00000000	          0.00000000	          0.00000000	          0.00000000	          0.00000000	          0.00000000	          0.00000000	          2.29672300	          0.00000000	          0.00000000	          0.00000000	          0.00000000	
          1.55600000	         81.80135635	        581.25666068	        -35.19920069	          0.89606377	          0.00000000	          0.13392251	          0.00000000	          0.00000000	          0.00000000	          0.00000000	          0.00000000	          0.00000000	          0.00000000	          2.43469278	          0.00000000	          0.00000000	          0.00000000	          0.00000000	
          1.56000000	         87.32630664	        596.68533223	        -35.68299729	          0.89615280	          0.00000000	          0.13383665	          0.00000000	          0.00000000	          0.00000000	          0.00000000	          0.00000000	          0.00000000	          0.00000000	          2.57906181	          0.00000000	          0.00000000	          0.00000000	          0.00000000	
          1.56400000	         93.42255063	        611.74282020	        -36.49049252	          0.89621763	          0.00000000	          0.13374978	          0.00000000	          0.00000000	          0.00000000	          0.00000000	          0.00000000	          0.00000000	          0.00000000	          2.72861963	          0.00000000	          0.00000000	          0.00000000	          0.00000000	
          1.56800000	         99.97588120	        626.38186722	        -37.61591595	          0.89627497	          0.00000000	          0.13366202	          0.00000000	          0.00000000	          0.00000000	          0.00000000	          0.00000000	          0.00000000	          0.00000000	          2.88201688	          0.00000000	          0.00000000	          0.00000000	          0.00000000	
          1.57200000	        106.82445580	        640.51529473	        -38.97490399	          0.89633932	          0.00000000	          0.13357238	          0.00000000	          0.00000000	          0.00000000	          0.00000000	          0.00000000	          0.00000000	          0.00000000	          3.03746746	          0.00000000	          0.00000000	          0.00000000	          0.00000000	
          1.57600000	        113.79147417	        654.02400099	        -40.42552575	          0.89643276	          0.00000000	          0.13347874	          0.00000000	          0.00000000	          0.00000000	          0.00000000	          0.00000000	          0.00000000	          0.00000000	          3.19255693	          0.00000000	          0.00000000	          0.00000000	          0.00000000	
          1.58000000	        120.71795498	        666.76813300	        -41.79628620	          0.89657029	          0.00000000	          0.13338004	          0.00000000	          0.00000000	          0.00000000	          0.00000000	          0.00000000	          0.00000000	          0.00000000	          3.34427950	          0.00000000	          0.00000000	          0.00000000	          0.00000000	
          1.58400000	        127.48186003	        678.59403911	        -42.91754628	          0.89675444	          0.00000000	          0.13327764	          0.00000000	          0.00000000	          0.00000000	          0.00000000	          0.00000000	          0.00000000	          0.00000000	          3.48936820	          0.00000000	          0.00000000	          0.00000000	          0.00000000	
          1.58800000	        134.00344376	        689.34241472	        -43.65402942	          0.89698554	          0.00000000	          0.13317090	          0.00000000	          0.00000000	          0.00000000	          0.00000000	          0.00000000	          0.00000000	          0.00000000	          3.62489921	          0.00000000	          0.00000000	          0.00000000	          0.00000000	
          1.59200000	        140.24114030	        698.86063201	        -43.93214679	          0.89725319	          0.00000000	          0.13305715	          0.00000000	          0.00000000	          0.00000000	          0.00000000	          0.00000000	          0.00000000	          0.00000000	          3.74903907	          0.00000000	          0.00000000	          0.00000000	          0.00000000	
          1.59600000	        146.18403913	        707.01054695	        -43.75645918	          0.89755146	          0.00000000	          0.13293272	          0.00000000	          0.00000000	          0.00000000	          0.00000000	          0.00000000	          0.00000000	          0.00000000	          3.86171260	          0.00000000	          0.00000000	          0.00000000	          0.00000000	
          1.60000000	        151.84302338	        713.66646683	        -43.21064477	          0.89787806	          0.00000000	          0.13279455	          0.00000000	          0.00000000	          0.00000000	          0.00000000	          0.00000000	          0.00000000	          0.00000000	          3.96491895	          0.00000000	          0.00000000	          0.00000000	          0.00000000	
          1.60400000	        157.23913841	        718.71858700	        -42.44223716	          0.89822452	          0.00000000	          0.13264478	          0.00000000	          0.00000000	          0.00000000	          0.00000000	          0.00000000	          0.00000000	          0.00000000	          4.06242860	          0.00000000	          0.00000000	          0.00000000	          0.00000000	
